<?xml version="1.0" encoding="UTF-8" standalone="no"?>
<!-- Generator: Adobe Illustrator 19.2.0, SVG Export Plug-In . SVG Version: 6.00 Build 0)  -->

<svg
   xmlns:dc="http://purl.org/dc/elements/1.1/"
   xmlns:cc="http://creativecommons.org/ns#"
   xmlns:rdf="http://www.w3.org/1999/02/22-rdf-syntax-ns#"
   xmlns:svg="http://www.w3.org/2000/svg"
   xmlns="http://www.w3.org/2000/svg"
   xmlns:xlink="http://www.w3.org/1999/xlink"
   xmlns:sodipodi="http://sodipodi.sourceforge.net/DTD/sodipodi-0.dtd"
   xmlns:inkscape="http://www.inkscape.org/namespaces/inkscape"
   version="1.1"
   id="Layer_1"
   x="0px"
   y="0px"
   viewBox="0 0 153.17796 77.118644"
   xml:space="preserve"
   inkscape:version="0.48.4 r9939"
   width="100%"
   height="100%"
   sodipodi:docname="intro.svg"><metadata
     id="metadata71"><rdf:RDF><cc:Work
         rdf:about=""><dc:format>image/svg+xml</dc:format><dc:type
           rdf:resource="http://purl.org/dc/dcmitype/StillImage" /><dc:title /></cc:Work></rdf:RDF></metadata><defs
     id="defs69" /><sodipodi:namedview
     pagecolor="#ffffff"
     bordercolor="#666666"
     borderopacity="1"
     objecttolerance="10"
     gridtolerance="10"
     guidetolerance="10"
     inkscape:pageopacity="0"
     inkscape:pageshadow="2"
     inkscape:window-width="1346"
     inkscape:window-height="671"
     id="namedview67"
     showgrid="false"
     fit-margin-top="0"
     fit-margin-left="0"
     fit-margin-right="0"
     fit-margin-bottom="0"
     inkscape:zoom="4.72"
     inkscape:cx="14.06796"
     inkscape:cy="38.368428"
     inkscape:window-x="10"
     inkscape:window-y="87"
     inkscape:window-maximized="0"
     inkscape:current-layer="g5" /><style
     type="text/css"
     id="style3">
	.st0{clip-path:url(#SVGID_2_);fill:#A3DAD9;}
	.st1{clip-path:url(#SVGID_2_);}
	.st2{fill:#8D4C25;}
	.st3{fill:#6B391F;}
	.st4{opacity:0.2;fill:#010101;}
	.st5{fill:#9A532F;}
	.st6{opacity:0.4;fill:#28451E;}
	.st7{fill:#F8BE38;}
	.st8{fill:#313F52;}
	.st9{opacity:0.2;clip-path:url(#SVGID_4_);fill:#010101;}
	.st10{fill:#FFFFFF;}
	.st11{fill:#965CA5;}
	.st12{fill:none;stroke:#313F52;stroke-width:4.1206;stroke-linecap:round;stroke-miterlimit:10;}
</style><g
     id="g5"
     transform="translate(-9.0932223,-7.9186425)"><defs
       id="defs7"><path
         id="SVGID_1_"
         d="M 152.1,80.8 H 14 c -1.7,0 -3,-1.3 -3,-3 V 12.5 c 0,-1.6 1.3,-3 3,-3 h 138.2 c 1.7,0 3,1.4 3,3 v 65.3 c -0.1,1.7 -1.4,3 -3.1,3 z"
         inkscape:connector-curvature="0" /></defs><clipPath
       id="SVGID_2_"><use
         xlink:href="#SVGID_1_"
         style="overflow:visible"
         id="use11"
         x="0"
         y="0"
         width="200"
         height="200" /></clipPath><rect
       style="fill:#a3dad9;fill-opacity:1;stroke:none"
       id="rect3017"
       width="153.17796"
       height="77.118645"
       x="-1.9067796"
       y="-1.581356"
       transform="translate(11,9.4999985)" /><g
       class="st1"
       id="g15"
       clip-path="url(#SVGID_2_)"
       transform="translate(3.032202,2.6279648)"><g
         id="g17"><path
           class="st2"
           d="M 85.9,54.5 H 37.2 V 23.7 c 0,-2.5 2,-4.5 4.5,-4.5 h 39.9 c 2.4,0 4.3,1.9 4.3,4.3 v 31 z"
           id="path19"
           inkscape:connector-curvature="0"
           style="fill:#8d4c25" /><rect
           x="37.200001"
           y="21.4"
           class="st3"
           width="48.700001"
           height="9.1000004"
           id="rect21"
           style="fill:#6b391f" /><path
           class="st2"
           d="M 81.6,60.5 H 41.5 c -2.4,0 -4.3,-1.9 -4.3,-4.3 v -31 h 48.7 v 31 c 0,2.4 -1.9,4.3 -4.3,4.3 z"
           id="path23"
           inkscape:connector-curvature="0"
           style="fill:#8d4c25" /><path
           class="st4"
           d="m 85.9,46.8 h -15 c -2.6,0 -4.7,-2.1 -4.7,-4.7 0,-2.6 2.1,-4.7 4.7,-4.7 h 15 v 9.4 z"
           id="path25"
           inkscape:connector-curvature="0"
           style="opacity:0.2;fill:#010101" /><path
           class="st5"
           d="M 85.9,45 H 72.1 c -2.6,0 -4.7,-2.1 -4.7,-4.7 0,-2.6 2.1,-4.7 4.7,-4.7 H 85.9 V 45 z"
           id="path27"
           inkscape:connector-curvature="0"
           style="fill:#9a532f" /><rect
           x="85.900002"
           y="34.599998"
           class="st2"
           width="2.5"
           height="9.3000002"
           id="rect29"
           style="fill:#8d4c25" /><rect
           x="85.900002"
           y="34.599998"
           class="st4"
           width="2.5"
           height="9.3000002"
           id="rect31"
           style="opacity:0.2;fill:#010101" /><polygon
           class="st2"
           points="88.4,34.6 88.4,43.9 85.9,45 85.9,35.7 "
           id="polygon33"
           style="fill:#8d4c25" /><polygon
           class="st6"
           points="45.4,22.6 84,22.6 85.2,24.2 84.7,24.6 85,25.2 41.7,25.1 "
           id="polygon35"
           style="opacity:0.4;fill:#28451e" /></g><g
         id="g37"><path
           class="st7"
           d="m 123.4,59.3 h -23.2 c -2.6,0 -4.7,-2.1 -4.7,-4.7 V 42.3 c 0,-2.6 2.1,-4.7 4.7,-4.7 h 23.2 c 2.6,0 4.7,2.1 4.7,4.7 v 12.3 c 0,2.6 -2.1,4.7 -4.7,4.7 z"
           id="path39"
           inkscape:connector-curvature="0"
           style="fill:#f8be38" /><rect
           x="95.5"
           y="42.099998"
           class="st8"
           width="32.599998"
           height="5.4000001"
           id="rect41"
           style="fill:#313f52" /><g
           id="g43"><defs
             id="defs45"><path
               id="SVGID_3_"
               d="m 123.4,59.3 h -23.2 c -2.6,0 -4.7,-2.1 -4.7,-4.7 V 42.3 c 0,-2.6 2.1,-4.7 4.7,-4.7 h 23.2 c 2.6,0 4.7,2.1 4.7,4.7 v 12.3 c 0,2.6 -2.1,4.7 -4.7,4.7 z"
               inkscape:connector-curvature="0" /></defs><clipPath
             id="SVGID_4_"><use
               xlink:href="#SVGID_3_"
               style="overflow:visible"
               id="use49"
               x="0"
               y="0"
               width="200"
               height="200" /></clipPath><path
             class="st9"
             d="M 110.7,66.8 H 92.5 c -4,0 -7.2,-3.2 -7.2,-7.2 v -7.2 c 0,-4 3.2,-7.2 7.2,-7.2 h 18.2 c 4,0 7.2,3.2 7.2,7.2 v 7.2 c 0,4 -3.3,7.2 -7.2,7.2 z"
             id="path51"
             clip-path="url(#SVGID_4_)"
             inkscape:connector-curvature="0"
             style="opacity:0.2;fill:#010101" /></g><path
           class="st10"
           d="M 111.4,68.5 H 88.2 c -2.6,0 -4.7,-2.1 -4.7,-4.7 V 51.5 c 0,-2.6 2.1,-4.7 4.7,-4.7 h 23.2 c 2.6,0 4.7,2.1 4.7,4.7 v 12.3 c -0.1,2.6 -2.1,4.7 -4.7,4.7 z"
           id="path53"
           inkscape:connector-curvature="0"
           style="fill:#ffffff" /><circle
           class="st11"
           cx="94.300003"
           cy="62.5"
           r="3.3"
           id="circle55"
           sodipodi:cx="94.300003"
           sodipodi:cy="62.5"
           sodipodi:rx="3.3"
           sodipodi:ry="3.3"
           style="fill:#965ca5"
           d="m 97.600003,62.5 c 0,1.82254 -1.47746,3.3 -3.3,3.3 -1.82254,0 -3.3,-1.47746 -3.3,-3.3 0,-1.82254 1.47746,-3.3 3.3,-3.3 1.82254,0 3.3,1.47746 3.3,3.3 z" /><circle
           class="st8"
           cx="89.5"
           cy="62.5"
           r="3.3"
           id="circle57"
           sodipodi:cx="89.5"
           sodipodi:cy="62.5"
           sodipodi:rx="3.3"
           sodipodi:ry="3.3"
           style="fill:#313f52"
           d="m 92.8,62.5 c 0,1.82254 -1.47746,3.3 -3.3,3.3 -1.82254,0 -3.3,-1.47746 -3.3,-3.3 0,-1.82254 1.47746,-3.3 3.3,-3.3 1.82254,0 3.3,1.47746 3.3,3.3 z" /><g
           id="g59"><path
             class="st10"
             d="m 89.5,59.3 c 1.8,0 3.3,1.5 3.3,3.3 0,1.8 -1.5,3.3 -3.3,3.3 -1.8,0 -3.3,-1.5 -3.3,-3.3 0,-1.9 1.5,-3.3 3.3,-3.3 m 0,-1.7 c -2.7,0 -4.9,2.2 -4.9,4.9 0,2.7 2.2,4.9 4.9,4.9 2.7,0 4.9,-2.2 4.9,-4.9 0.1,-2.7 -2.2,-4.9 -4.9,-4.9 l 0,0 z"
             id="path61"
             inkscape:connector-curvature="0"
             style="fill:#ffffff" /></g><line
           class="st12"
           x1="88"
           y1="52.799999"
           x2="111.8"
           y2="52.799999"
           id="line63"
           style="fill:none;stroke:#313f52;stroke-width:4.12060022;stroke-linecap:round;stroke-miterlimit:10" /><line
           class="st12"
           x1="99.800003"
           y1="57.700001"
           x2="111.8"
           y2="57.700001"
           id="line65"
           style="fill:none;stroke:#313f52;stroke-width:4.12060022;stroke-linecap:round;stroke-miterlimit:10" /></g></g></g></svg>