<?xml version="1.0" encoding="UTF-8" standalone="no"?>
<!-- Generator: Adobe Illustrator 19.2.0, SVG Export Plug-In . SVG Version: 6.00 Build 0)  -->

<svg
   xmlns:dc="http://purl.org/dc/elements/1.1/"
   xmlns:cc="http://creativecommons.org/ns#"
   xmlns:rdf="http://www.w3.org/1999/02/22-rdf-syntax-ns#"
   xmlns:svg="http://www.w3.org/2000/svg"
   xmlns="http://www.w3.org/2000/svg"
   xmlns:sodipodi="http://sodipodi.sourceforge.net/DTD/sodipodi-0.dtd"
   xmlns:inkscape="http://www.inkscape.org/namespaces/inkscape"
   version="1.1"
   id="Layer_1"
   x="0px"
   y="0px"
   viewBox="0 0 144.27967 71.61017"
   xml:space="preserve"
   inkscape:version="0.48.4 r9939"
   width="100%"
   height="100%"
   sodipodi:docname="step-2.svg"><metadata
     id="metadata51"><rdf:RDF><cc:Work
         rdf:about=""><dc:format>image/svg+xml</dc:format><dc:type
           rdf:resource="http://purl.org/dc/dcmitype/StillImage" /><dc:title /></cc:Work></rdf:RDF></metadata><defs
     id="defs49" /><sodipodi:namedview
     pagecolor="#ffffff"
     bordercolor="#666666"
     borderopacity="1"
     objecttolerance="10"
     gridtolerance="10"
     guidetolerance="10"
     inkscape:pageopacity="0"
     inkscape:pageshadow="2"
     inkscape:window-width="1346"
     inkscape:window-height="671"
     id="namedview47"
     showgrid="false"
     fit-margin-top="0"
     fit-margin-left="0"
     fit-margin-right="0"
     fit-margin-bottom="0"
     inkscape:zoom="4.72"
     inkscape:cx="77.973111"
     inkscape:cy="39.036961"
     inkscape:window-x="10"
     inkscape:window-y="87"
     inkscape:window-maximized="0"
     inkscape:current-layer="Layer_1" /><style
     type="text/css"
     id="style3">
	.st0{fill:#F2E79D;}
	.st1{fill:#313F52;}
	.st2{fill:#4C657C;}
	.st3{fill:#3D4E66;}
	.st4{fill:#4E98D2;}
	.st5{fill:#FFFFFF;}
	.st6{font-family:'Lato-Bold';}
	.st7{font-size:19.8322px;}
	.st8{fill:#E1BA5C;}
	.st9{fill:#EEF0F1;}
	.st10{fill:#BEC4C8;}
	.st11{fill:#D2D6D3;}
	.st12{fill:#3FAF65;}
	.st13{opacity:0.5;fill:#CDCCCC;}
</style><rect
     style="fill:#f2e79d;fill-opacity:1;stroke:none"
     id="rect3771"
     width="144.27966"
     height="71.610168"
     x="0"
     y="-9.6269559e-07" /><g
     id="g7"
     transform="translate(-12.460168,-9.3449167)"><g
       id="g9"><path
         class="st1"
         d="M 106.1,30.7 H 64.8 c -3.2,0 -5.8,2.6 -5.8,5.8 v 27.1 h 53 v -27 c -0.1,-3.3 -2.7,-5.9 -5.9,-5.9 z"
         id="path11"
         inkscape:connector-curvature="0"
         style="fill:#313f52" /><rect
         x="62.099998"
         y="34"
         class="st2"
         width="46.5"
         height="26.5"
         id="rect13"
         style="fill:#4c657c" /><path
         class="st3"
         d="m 115.4,63 c 0,2.6 -2.1,4.8 -4.8,4.8 H 60.2 c -2.6,0 -4.8,-2.1 -4.8,-4.8 h 60 z"
         id="path15"
         inkscape:connector-curvature="0"
         style="fill:#3d4e66" /><rect
         x="62.099998"
         y="58.400002"
         class="st4"
         width="46.5"
         height="2.0999999"
         id="rect17"
         style="fill:#4e98d2" /></g><text
       transform="translate(76.9907,52.6771)"
       class="st5 st6 st7"
       id="text19"
       style="font-size:19.8321991px;fill:#ffffff;font-family:Lato-Bold">@</text>
<g
       id="g21"><polygon
         class="st8"
         points="58.9,66.7 44.6,55.9 58.9,45.2 73.3,55.9 "
         id="polygon23"
         style="fill:#e1ba5c" /><polygon
         class="st3"
         points="58.9,66.7 44.6,55.9 58.9,45.2 73.3,55.9 "
         id="polygon25"
         style="fill:#3d4e66" /><rect
         x="47.5"
         y="43.099998"
         class="st9"
         width="22.799999"
         height="28.9"
         id="rect27"
         style="fill:#eef0f1" /><polygon
         class="st10"
         points="44.6,77.5 44.6,55.9 58.9,66.7 73.3,55.9 73.3,77.5 "
         id="polygon29"
         style="fill:#bec4c8" /><polygon
         class="st11"
         points="73.3,77.5 44.6,77.5 58.9,66.7 "
         id="polygon31"
         style="fill:#d2d6d3" /></g><g
       id="g33"><path
         class="st12"
         d="M 117.8,34.8 H 99.6 c -3.7,0 -6.8,-3 -6.8,-6.8 v -8.4 c 0,-3.7 3,-6.8 6.8,-6.8 h 18.2 c 3.7,0 6.8,3 6.8,6.8 V 28 c 0,3.7 -3.1,6.8 -6.8,6.8 z"
         id="path35"
         inkscape:connector-curvature="0"
         style="fill:#3faf65" /><path
         class="st12"
         d="m 102.2,40.9 c -0.3,0.3 -0.7,0.4 -1.1,0.2 -0.4,-0.2 -0.6,-0.5 -0.6,-0.9 v -6 h 8.5 l -6.8,6.7 z"
         id="path37"
         inkscape:connector-curvature="0"
         style="fill:#3faf65" /><circle
         class="st9"
         cx="108.7"
         cy="23.799999"
         r="2"
         id="circle39"
         sodipodi:cx="108.7"
         sodipodi:cy="23.799999"
         sodipodi:rx="2"
         sodipodi:ry="2"
         style="fill:#eef0f1"
         d="m 110.7,23.799999 c 0,1.10457 -0.89543,2 -2,2 -1.10457,0 -2,-0.89543 -2,-2 0,-1.104569 0.89543,-2 2,-2 1.10457,0 2,0.895431 2,2 z" /><circle
         class="st9"
         cx="115.1"
         cy="23.799999"
         r="2"
         id="circle41"
         sodipodi:cx="115.1"
         sodipodi:cy="23.799999"
         sodipodi:rx="2"
         sodipodi:ry="2"
         style="fill:#eef0f1"
         d="m 117.1,23.799999 c 0,1.10457 -0.89543,2 -2,2 -1.10457,0 -2,-0.89543 -2,-2 0,-1.104569 0.89543,-2 2,-2 1.10457,0 2,0.895431 2,2 z" /><circle
         class="st9"
         cx="102.3"
         cy="23.799999"
         r="2"
         id="circle43"
         sodipodi:cx="102.3"
         sodipodi:cy="23.799999"
         sodipodi:rx="2"
         sodipodi:ry="2"
         style="fill:#eef0f1"
         d="m 104.3,23.799999 c 0,1.10457 -0.89543,2 -2,2 -1.10457,0 -2,-0.89543 -2,-2 0,-1.104569 0.89543,-2 2,-2 1.10457,0 2,0.895431 2,2 z" /></g><polygon
       class="st13"
       points="58.9,66.7 70.4,58.2 58.9,62 47.4,58 "
       id="polygon45"
       style="opacity:0.5;fill:#cdcccc" /></g></svg>