<?xml version="1.0" encoding="UTF-8" standalone="no"?>
<!-- Generator: Adobe Illustrator 19.2.0, SVG Export Plug-In . SVG Version: 6.00 Build 0)  -->

<svg
   xmlns:dc="http://purl.org/dc/elements/1.1/"
   xmlns:cc="http://creativecommons.org/ns#"
   xmlns:rdf="http://www.w3.org/1999/02/22-rdf-syntax-ns#"
   xmlns:svg="http://www.w3.org/2000/svg"
   xmlns="http://www.w3.org/2000/svg"
   xmlns:xlink="http://www.w3.org/1999/xlink"
   xmlns:sodipodi="http://sodipodi.sourceforge.net/DTD/sodipodi-0.dtd"
   xmlns:inkscape="http://www.inkscape.org/namespaces/inkscape"
   version="1.1"
   id="Layer_1"
   x="0px"
   y="0px"
   viewBox="0 0 144.2 71.3"
   xml:space="preserve"
   inkscape:version="0.48.4 r9939"
   width="100%"
   height="100%"
   sodipodi:docname="ef_gs_4.svg"><metadata
     id="metadata61"><rdf:RDF><cc:Work
         rdf:about=""><dc:format>image/svg+xml</dc:format><dc:type
           rdf:resource="http://purl.org/dc/dcmitype/StillImage" /><dc:title></dc:title></cc:Work></rdf:RDF></metadata><defs
     id="defs59" /><sodipodi:namedview
     pagecolor="#ffffff"
     bordercolor="#666666"
     borderopacity="1"
     objecttolerance="10"
     gridtolerance="10"
     guidetolerance="10"
     inkscape:pageopacity="0"
     inkscape:pageshadow="2"
     inkscape:window-width="1346"
     inkscape:window-height="653"
     id="namedview57"
     showgrid="false"
     fit-margin-top="0"
     fit-margin-left="0"
     fit-margin-right="0"
     fit-margin-bottom="0"
     inkscape:zoom="3.337544"
     inkscape:cx="78.742414"
     inkscape:cy="29.531394"
     inkscape:window-x="10"
     inkscape:window-y="105"
     inkscape:window-maximized="0"
     inkscape:current-layer="Layer_1" /><style
     type="text/css"
     id="style3">
	.st0{fill:#DFC0DC;}
	.st1{fill:#313F52;}
	.st2{fill:#232C38;}
	.st3{fill:#FFFFFF;}
	.st4{fill:none;stroke:#313F52;stroke-width:2.5;stroke-miterlimit:10;}
	.st5{fill:none;stroke:#4C657C;stroke-width:2.5705;stroke-miterlimit:10;}
	.st6{fill:none;stroke:#4C657C;stroke-width:4.4983;stroke-linecap:round;stroke-miterlimit:10;}
	.st7{fill:#F8BE38;}
	.st8{opacity:0.2;clip-path:url(#SVGID_2_);fill:#010101;}
	.st9{fill:#965CA5;}
	.st10{fill:none;stroke:#313F52;stroke-width:2.8671;stroke-linecap:round;stroke-miterlimit:10;}
</style><rect
     style="fill:#dfc0dc;fill-opacity:1;stroke:none"
     id="rect3009"
     width="144.41757"
     height="71.309921"
     x="0"
     y="-2.2803531e-06" /><g
     id="g7"
     transform="translate(-10.466214,-11.5)"><g
       id="g9"><path
         class="st1"
         d="m 97.8,16 h -36 c -3.6,0 -6.5,2.9 -6.5,6.5 v 24 h 49.1 v -24 c -0.1,-3.6 -3,-6.5 -6.6,-6.5 z"
         id="path11"
         inkscape:connector-curvature="0"
         style="fill:#313f52" /><rect
         x="58.200001"
         y="19"
         class="st2"
         width="43.099998"
         height="24.6"
         id="rect13"
         style="fill:#232c38" /><path
         class="st3"
         d="m 107.5,45.9 c 0,2.4 -2,4.4 -4.4,4.4 H 56.4 C 54,50.3 52,48.3 52,45.9 h 55.5 z"
         id="path15"
         inkscape:connector-curvature="0"
         style="fill:#ffffff" /></g><path
       class="st4"
       d="M 80.2,66.2 V 60 c 0,-1.6 1.3,-3 3,-3 H 110 c 1.6,0 3,-1.3 3,-3 V 34.4 c 0,-1.6 -1.3,-3 -3,-3 h -6.5"
       id="path17"
       inkscape:connector-curvature="0"
       style="fill:none;stroke:#313f52;stroke-width:2.5;stroke-miterlimit:10" /><g
       id="g19"><path
         class="st1"
         d="m 85.9,67.7 c 0,-2 -1.6,-3.6 -3.6,-3.6 h -4.2 c -2,0 -3.6,1.6 -3.6,3.6 V 73 c 0,3.1 2.5,5.7 5.7,5.7 3.1,0 5.7,-2.5 5.7,-5.7 v -5.3 z"
         id="path21"
         inkscape:connector-curvature="0"
         style="fill:#313f52" /><line
         class="st5"
         x1="80.199997"
         y1="64.099998"
         x2="80.199997"
         y2="71.800003"
         id="line23"
         style="fill:none;stroke:#4c657c;stroke-width:2.5704999;stroke-miterlimit:10" /><line
         class="st6"
         x1="80.199997"
         y1="66.5"
         x2="80.199997"
         y2="68.699997"
         id="line25"
         style="fill:none;stroke:#4c657c;stroke-width:4.49830008;stroke-linecap:round;stroke-miterlimit:10" /></g><g
       id="g27"><path
         class="st7"
         d="M 73.5,61 H 61.2 C 59.4,61 58,59.5 58,57.8 v -6 c 0,-1.8 1.5,-3.2 3.2,-3.2 h 12.3 c 1.8,0 3.2,1.5 3.2,3.2 v 6 c 0,1.8 -1.5,3.2 -3.2,3.2 z"
         id="path29"
         inkscape:connector-curvature="0"
         style="fill:#f8be38" /><rect
         x="57.900002"
         y="51.099998"
         class="st1"
         width="18.799999"
         height="3.0999999"
         id="rect31"
         style="fill:#313f52" /><g
         id="g33"><defs
           id="defs35"><path
             id="SVGID_1_"
             d="M 73.5,61 H 61.2 C 59.4,61 58,59.5 58,57.8 v -6 c 0,-1.8 1.5,-3.2 3.2,-3.2 h 12.3 c 1.8,0 3.2,1.5 3.2,3.2 v 6 c 0,1.8 -1.5,3.2 -3.2,3.2 z"
             inkscape:connector-curvature="0" /></defs><clipPath
           id="SVGID_2_"><use
             xlink:href="#SVGID_1_"
             style="overflow:visible"
             id="use39"
             x="0"
             y="0"
             width="200"
             height="200" /></clipPath><path
           class="st8"
           d="M 65.8,65.4 H 57 c -2.8,0 -5,-2.2 -5,-5 V 58 c 0,-2.8 2.2,-5 5,-5 h 8.8 c 2.8,0 5,2.2 5,5 v 2.4 c 0,2.7 -2.2,5 -5,5 z"
           id="path41"
           clip-path="url(#SVGID_2_)"
           inkscape:connector-curvature="0"
           style="opacity:0.2;fill:#010101" /></g><path
         class="st3"
         d="M 66.5,66.3 H 54.3 c -1.8,0 -3.2,-1.5 -3.2,-3.2 v -6 c 0,-1.8 1.5,-3.2 3.2,-3.2 h 12.3 c 1.8,0 3.2,1.5 3.2,3.2 v 6 c 0,1.8 -1.5,3.2 -3.3,3.2 z"
         id="path43"
         inkscape:connector-curvature="0"
         style="fill:#ffffff" /><circle
         class="st9"
         cx="57.299999"
         cy="62.900002"
         r="1.9"
         id="circle45"
         sodipodi:cx="57.299999"
         sodipodi:cy="62.900002"
         sodipodi:rx="1.9"
         sodipodi:ry="1.9"
         style="fill:#965ca5"
         d="m 59.199999,62.900002 c 0,1.049341 -0.850659,1.9 -1.9,1.9 -1.049341,0 -1.9,-0.850659 -1.9,-1.9 0,-1.049341 0.850659,-1.9 1.9,-1.9 1.049341,0 1.9,0.850659 1.9,1.9 z" /><circle
         class="st1"
         cx="54.5"
         cy="62.900002"
         r="1.9"
         id="circle47"
         sodipodi:cx="54.5"
         sodipodi:cy="62.900002"
         sodipodi:rx="1.9"
         sodipodi:ry="1.9"
         style="fill:#313f52"
         d="m 56.4,62.900002 c 0,1.049341 -0.850659,1.9 -1.9,1.9 -1.049341,0 -1.9,-0.850659 -1.9,-1.9 0,-1.049341 0.850659,-1.9 1.9,-1.9 1.049341,0 1.9,0.850659 1.9,1.9 z" /><g
         id="g49"><path
           class="st3"
           d="m 54.5,61 c 1,0 1.9,0.8 1.9,1.9 0,1 -0.8,1.9 -1.9,1.9 -1,0 -1.9,-0.8 -1.9,-1.9 0,-1 0.8,-1.9 1.9,-1.9 m 0,-1.1 c -1.7,0 -3,1.4 -3,3 0,1.7 1.4,3 3,3 1.7,0 3,-1.4 3,-3 0,-1.7 -1.3,-3 -3,-3 l 0,0 z"
           id="path51"
           inkscape:connector-curvature="0"
           style="fill:#ffffff" /></g><line
         class="st10"
         x1="53.599998"
         y1="57.299999"
         x2="67.300003"
         y2="57.299999"
         id="line53"
         style="fill:none;stroke:#313f52;stroke-width:2.8671;stroke-linecap:round;stroke-miterlimit:10" /><line
         class="st10"
         x1="60.400002"
         y1="60.099998"
         x2="67.300003"
         y2="60.099998"
         id="line55"
         style="fill:none;stroke:#313f52;stroke-width:2.8671;stroke-linecap:round;stroke-miterlimit:10" /></g></g></svg>