<?xml version="1.0" encoding="UTF-8" standalone="no"?>
<!-- Generator: Adobe Illustrator 19.2.0, SVG Export Plug-In . SVG Version: 6.00 Build 0)  -->

<svg
   xmlns:dc="http://purl.org/dc/elements/1.1/"
   xmlns:cc="http://creativecommons.org/ns#"
   xmlns:rdf="http://www.w3.org/1999/02/22-rdf-syntax-ns#"
   xmlns:svg="http://www.w3.org/2000/svg"
   xmlns="http://www.w3.org/2000/svg"
   xmlns:xlink="http://www.w3.org/1999/xlink"
   xmlns:sodipodi="http://sodipodi.sourceforge.net/DTD/sodipodi-0.dtd"
   xmlns:inkscape="http://www.inkscape.org/namespaces/inkscape"
   version="1.1"
   id="Layer_1"
   x="0px"
   y="0px"
   viewBox="0 0 143.80999 71.57455"
   xml:space="preserve"
   inkscape:version="0.48.4 r9939"
   width="100%"
   height="100%"
   sodipodi:docname="ef_gs_2.svg"><metadata
     id="metadata149"><rdf:RDF><cc:Work
         rdf:about=""><dc:format>image/svg+xml</dc:format><dc:type
           rdf:resource="http://purl.org/dc/dcmitype/StillImage" /><dc:title></dc:title></cc:Work></rdf:RDF></metadata><defs
     id="defs147" /><sodipodi:namedview
     pagecolor="#ffffff"
     bordercolor="#666666"
     borderopacity="1"
     objecttolerance="10"
     gridtolerance="10"
     guidetolerance="10"
     inkscape:pageopacity="0"
     inkscape:pageshadow="2"
     inkscape:window-width="1346"
     inkscape:window-height="653"
     id="namedview145"
     showgrid="false"
     fit-margin-top="0"
     fit-margin-left="0"
     fit-margin-right="0"
     fit-margin-bottom="0"
     inkscape:zoom="2.7104608"
     inkscape:cx="36.590603"
     inkscape:cy="1.304906"
     inkscape:window-x="10"
     inkscape:window-y="105"
     inkscape:window-maximized="0"
     inkscape:current-layer="g5" /><style
     type="text/css"
     id="style3">
	.st0{clip-path:url(#SVGID_2_);fill:#98A8BF;}
	.st1{clip-path:url(#SVGID_2_);}
	.st2{fill:#313F52;}
	.st3{fill:#4C657C;}
	.st4{fill:#4E98D2;}
	.st5{opacity:9.000000e-02;fill:#010101;}
	.st6{fill:#EEF0F1;}
	.st7{fill:#BEC4C8;}
	.st8{fill:#F26D6E;}
	.st9{fill:none;stroke:#313F52;stroke-width:1.9452;stroke-miterlimit:10;}
	.st10{opacity:0.15;fill:#010101;}
	.st11{fill:none;stroke:#4C657C;stroke-width:1.9452;stroke-miterlimit:10;}
	.st12{fill:none;stroke:#4C657C;stroke-width:3.4042;stroke-linecap:round;stroke-miterlimit:10;}
</style><g
     id="g5"
     transform="translate(-7.2689409,-6.9254556)"><defs
       id="defs7"><path
         id="SVGID_1_"
         d="M 148,78.5 H 9.9 c -1.6,0 -3,-1.3 -3,-3 V 10.2 c 0,-1.7 1.4,-3 3,-3 H 148 c 1.6,0 3,1.3 3,3 v 65.3 c 0,1.6 -1.3,3 -3,3 z"
         inkscape:connector-curvature="0" /></defs><clipPath
       id="SVGID_2_"><use
         xlink:href="#SVGID_1_"
         style="overflow:visible"
         id="use11"
         x="0"
         y="0"
         width="200"
         height="200" /></clipPath><rect
       style="fill:#98a8bf;fill-opacity:1;stroke:none"
       id="rect3821"
       width="143.80998"
       height="71.574547"
       x="7.2689409"
       y="6.9254556" /><g
       class="st1"
       id="g15"
       clip-path="url(#SVGID_2_)"
       transform="translate(0.82393208,0.11272898)"><g
         id="g17"><path
           class="st2"
           d="M 93.4,15.6 H 64.2 c -3.5,0 -6.3,2.8 -6.3,6.3 v 19.9 c 0,3.5 2.8,6.3 6.3,6.3 h 29.2 c 3.5,0 6.3,-2.8 6.3,-6.3 V 22 c 0.1,-3.5 -2.8,-6.4 -6.3,-6.4 z"
           id="path19"
           inkscape:connector-curvature="0"
           style="fill:#313f52" /><rect
           x="60.400002"
           y="18.799999"
           class="st3"
           width="36.799999"
           height="26.200001"
           id="rect21"
           style="fill:#4c657c" /><rect
           x="60.400002"
           y="42.900002"
           class="st4"
           width="36.799999"
           height="2"
           id="rect23"
           style="fill:#4e98d2" /><polygon
           class="st5"
           points="97.2,18.8 60.4,45 97.2,45 "
           id="polygon25" /></g><rect
         x="75.300003"
         y="46.5"
         class="st2"
         width="7.0999999"
         height="7"
         id="rect27"
         style="fill:#313f52" /><path
         class="st2"
         d="M 87,56.9 H 70.6 c 0,-2.4 1.5,-4.3 3.4,-4.3 h 9.4 c 2,0 3.6,1.9 3.6,4.3 z"
         id="path29"
         inkscape:connector-curvature="0"
         style="fill:#313f52" /><rect
         x="66.900002"
         y="15.6"
         class="st5"
         width="27.4"
         height="25"
         id="rect31" /><g
         id="g33"><rect
           x="65.099998"
           y="-12.9"
           class="st6"
           width="27.4"
           height="51.599998"
           id="rect35"
           style="fill:#eef0f1" /><rect
           x="66.900002"
           y="-11"
           class="st4"
           width="23.700001"
           height="7.0999999"
           id="rect37"
           style="fill:#4e98d2" /><rect
           x="66.900002"
           y="-1"
           class="st7"
           width="8.3000002"
           height="12.5"
           id="rect39"
           style="fill:#bec4c8" /><rect
           x="77.5"
           y="9.3999996"
           class="st7"
           width="13.2"
           height="2.0999999"
           id="rect41"
           style="fill:#bec4c8" /><rect
           x="77.5"
           y="6"
           class="st7"
           width="13.2"
           height="2.0999999"
           id="rect43"
           style="fill:#bec4c8" /><rect
           x="77.5"
           y="2.5"
           class="st7"
           width="13.2"
           height="2.0999999"
           id="rect45"
           style="fill:#bec4c8" /><rect
           x="77.5"
           y="-1"
           class="st7"
           width="13.2"
           height="2.0999999"
           id="rect47"
           style="fill:#bec4c8" /><rect
           x="71.099998"
           y="15.6"
           class="st8"
           width="15.9"
           height="3.2"
           id="rect49"
           style="fill:#f26d6e" /><rect
           x="69.699997"
           y="20.6"
           class="st7"
           width="18.6"
           height="13.9"
           id="rect51"
           style="fill:#bec4c8" /></g><path
         class="st9"
         d="m 57.9,33.6 h -7.4 c -1.2,0 -2.1,1.2 -2.1,2.6 v 20.9 c 0,1.4 0.9,2.6 2.1,2.6 H 71 c 1.2,0 2.1,1.2 2.1,2.6 v 3.6"
         id="path53"
         inkscape:connector-curvature="0"
         style="fill:none;stroke:#313f52;stroke-width:1.94519997;stroke-miterlimit:10" /><g
         id="g55"><path
           class="st2"
           d="M 86,77.9 H 59.4 c -1.1,0 -2,-0.9 -2,-2 V 65.4 c 0,-1.1 0.9,-2 2,-2 H 86 c 1.1,0 2,0.9 2,2 V 76 c -0.1,1.1 -0.9,1.9 -2,1.9 z"
           id="path57"
           inkscape:connector-curvature="0"
           style="fill:#313f52" /><g
           id="g59"><rect
             x="59.200001"
             y="67.300003"
             class="st3"
             width="2"
             height="2.4000001"
             id="rect61"
             style="fill:#4c657c" /><rect
             x="62"
             y="67.300003"
             class="st3"
             width="2"
             height="2.4000001"
             id="rect63"
             style="fill:#4c657c" /><rect
             x="64.800003"
             y="67.300003"
             class="st3"
             width="2"
             height="2.4000001"
             id="rect65"
             style="fill:#4c657c" /><rect
             x="67.5"
             y="67.300003"
             class="st3"
             width="2"
             height="2.4000001"
             id="rect67"
             style="fill:#4c657c" /><rect
             x="70.300003"
             y="67.300003"
             class="st3"
             width="2"
             height="2.4000001"
             id="rect69"
             style="fill:#4c657c" /><rect
             x="73.099998"
             y="67.300003"
             class="st3"
             width="2"
             height="2.4000001"
             id="rect71"
             style="fill:#4c657c" /><rect
             x="75.900002"
             y="67.300003"
             class="st3"
             width="2"
             height="2.4000001"
             id="rect73"
             style="fill:#4c657c" /><rect
             x="78.699997"
             y="67.300003"
             class="st3"
             width="2"
             height="2.4000001"
             id="rect75"
             style="fill:#4c657c" /><rect
             x="81.5"
             y="67.300003"
             class="st3"
             width="2"
             height="2.4000001"
             id="rect77"
             style="fill:#4c657c" /><rect
             x="84.300003"
             y="67.300003"
             class="st3"
             width="2"
             height="2.4000001"
             id="rect79"
             style="fill:#4c657c" /></g><g
           id="g81"><rect
             x="59.200001"
             y="70.800003"
             class="st3"
             width="2"
             height="2.4000001"
             id="rect83"
             style="fill:#4c657c" /><rect
             x="62"
             y="70.800003"
             class="st3"
             width="2"
             height="2.4000001"
             id="rect85"
             style="fill:#4c657c" /><rect
             x="64.800003"
             y="70.800003"
             class="st3"
             width="2"
             height="2.4000001"
             id="rect87"
             style="fill:#4c657c" /><rect
             x="67.5"
             y="70.800003"
             class="st3"
             width="2"
             height="2.4000001"
             id="rect89"
             style="fill:#4c657c" /><rect
             x="70.300003"
             y="70.800003"
             class="st3"
             width="2"
             height="2.4000001"
             id="rect91"
             style="fill:#4c657c" /><rect
             x="73.099998"
             y="70.800003"
             class="st3"
             width="2"
             height="2.4000001"
             id="rect93"
             style="fill:#4c657c" /><rect
             x="75.900002"
             y="70.800003"
             class="st3"
             width="2"
             height="2.4000001"
             id="rect95"
             style="fill:#4c657c" /><rect
             x="78.699997"
             y="70.800003"
             class="st3"
             width="2"
             height="2.4000001"
             id="rect97"
             style="fill:#4c657c" /><rect
             x="81.5"
             y="70.800003"
             class="st3"
             width="2"
             height="2.4000001"
             id="rect99"
             style="fill:#4c657c" /><rect
             x="84.300003"
             y="70.800003"
             class="st3"
             width="2"
             height="2.4000001"
             id="rect101"
             style="fill:#4c657c" /></g><rect
           x="59.200001"
           y="64.900002"
           class="st3"
           width="2"
           height="1.2"
           id="rect103"
           style="fill:#4c657c" /><rect
           x="62"
           y="64.900002"
           class="st3"
           width="2"
           height="1.2"
           id="rect105"
           style="fill:#4c657c" /><rect
           x="64.800003"
           y="64.900002"
           class="st3"
           width="2"
           height="1.2"
           id="rect107"
           style="fill:#4c657c" /><rect
           x="67.5"
           y="64.900002"
           class="st3"
           width="2"
           height="1.2"
           id="rect109"
           style="fill:#4c657c" /><rect
           x="70.300003"
           y="64.900002"
           class="st3"
           width="2"
           height="1.2"
           id="rect111"
           style="fill:#4c657c" /><rect
           x="73.099998"
           y="64.900002"
           class="st3"
           width="2"
           height="1.2"
           id="rect113"
           style="fill:#4c657c" /><rect
           x="75.900002"
           y="64.900002"
           class="st3"
           width="2"
           height="1.2"
           id="rect115"
           style="fill:#4c657c" /><rect
           x="78.699997"
           y="64.900002"
           class="st3"
           width="2"
           height="1.2"
           id="rect117"
           style="fill:#4c657c" /><rect
           x="81.5"
           y="64.900002"
           class="st3"
           width="2"
           height="1.2"
           id="rect119"
           style="fill:#4c657c" /><rect
           x="84.300003"
           y="64.900002"
           class="st3"
           width="2"
           height="1.2"
           id="rect121"
           style="fill:#4c657c" /><g
           id="g123"><rect
             x="65.199997"
             y="74.300003"
             class="st3"
             width="15.5"
             height="2.4000001"
             id="rect125"
             style="fill:#4c657c" /><rect
             x="62.5"
             y="74.300003"
             class="st3"
             width="2"
             height="2.4000001"
             id="rect127"
             style="fill:#4c657c" /><rect
             x="59.200001"
             y="74.300003"
             class="st3"
             width="2.5"
             height="2.4000001"
             id="rect129"
             style="fill:#4c657c" /><rect
             x="81.5"
             y="74.300003"
             class="st3"
             width="4.8000002"
             height="2.4000001"
             id="rect131"
             style="fill:#4c657c" /></g><path
           class="st10"
           d="M 87.6,63.6 57.8,77.8 c 0.1,0.1 0.3,0.2 0.5,0.2 H 87.2 C 87.7,78 88,77.5 88,77 V 64.4 c -0.1,-0.3 -0.2,-0.6 -0.4,-0.8 z"
           id="path133"
           inkscape:connector-curvature="0"
           style="opacity:0.15;fill:#010101" /></g><path
         class="st9"
         d="m 95.7,68.2 v -6.3 -5.8 c 0,-1.4 0.9,-2.6 2.1,-2.6 h 8.4 c 1.2,0 2.1,-1.2 2.1,-2.6 V 36.2 c 0,-1.4 -0.9,-2.6 -2.1,-2.6 h -7"
         id="path135"
         inkscape:connector-curvature="0"
         style="fill:none;stroke:#313f52;stroke-width:1.94519997;stroke-miterlimit:10" /><g
         id="g137"><path
           class="st2"
           d="m 98.6,68.9 c 0,-1.3 -0.8,-2.3 -1.8,-2.3 h -2.1 c -1,0 -1.8,1 -1.8,2.3 v 3.4 c 0,2 1.3,3.6 2.9,3.6 1.6,0 2.9,-1.6 2.9,-3.6 v -3.4 z"
           id="path139"
           inkscape:connector-curvature="0"
           style="fill:#313f52" /><line
           class="st11"
           x1="95.699997"
           y1="66.599998"
           x2="95.699997"
           y2="71.5"
           id="line141"
           style="fill:none;stroke:#4c657c;stroke-width:1.94519997;stroke-miterlimit:10" /><line
           class="st12"
           x1="95.699997"
           y1="68.099998"
           x2="95.699997"
           y2="69.5"
           id="line143"
           style="fill:none;stroke:#4c657c;stroke-width:3.40420008;stroke-linecap:round;stroke-miterlimit:10" /></g></g></g></svg>